<?xml version="1.0"?>
<svg width="1000" height="1000" xmlns="http://www.w3.org/2000/svg" version="1.1">
<rect x="150" y="0" width="850" height="850" style="fill:rgb(242,242,242);stroke-width:0;stroke:rgb(0,0,0);"/>
<line x1="150" y1="0" x2="150" y2="850" style="stroke:rgb(0,0,0);stroke-width:1;" />
<line x1="140" y1="800" x2="150" y2="800" style="stroke:rgb(0,0,0);stroke-width:1;" />
<text text-anchor="end" x="138" y="805" style="fill:rgb(0,0,0);">1.00</text>
<line x1="140" y1="725" x2="150" y2="725" style="stroke:rgb(0,0,0);stroke-width:1;" />
<text text-anchor="end" x="138" y="730" style="fill:rgb(0,0,0);">1.59</text>
<line x1="140" y1="650" x2="150" y2="650" style="stroke:rgb(0,0,0);stroke-width:1;" />
<text text-anchor="end" x="138" y="655" style="fill:rgb(0,0,0);">2.18</text>
<line x1="140" y1="575" x2="150" y2="575" style="stroke:rgb(0,0,0);stroke-width:1;" />
<text text-anchor="end" x="138" y="580" style="fill:rgb(0,0,0);">2.77</text>
<line x1="140" y1="500" x2="150" y2="500" style="stroke:rgb(0,0,0);stroke-width:1;" />
<text text-anchor="end" x="138" y="505" style="fill:rgb(0,0,0);">3.36</text>
<line x1="140" y1="425" x2="150" y2="425" style="stroke:rgb(0,0,0);stroke-width:1;" />
<text text-anchor="end" x="138" y="430" style="fill:rgb(0,0,0);">3.95</text>
<line x1="140" y1="350" x2="150" y2="350" style="stroke:rgb(0,0,0);stroke-width:1;" />
<text text-anchor="end" x="138" y="355" style="fill:rgb(0,0,0);">4.54</text>
<line x1="140" y1="275" x2="150" y2="275" style="stroke:rgb(0,0,0);stroke-width:1;" />
<text text-anchor="end" x="138" y="280" style="fill:rgb(0,0,0);">5.13</text>
<line x1="140" y1="200" x2="150" y2="200" style="stroke:rgb(0,0,0);stroke-width:1;" />
<text text-anchor="end" x="138" y="205" style="fill:rgb(0,0,0);">5.72</text>
<line x1="140" y1="125" x2="150" y2="125" style="stroke:rgb(0,0,0);stroke-width:1;" />
<text text-anchor="end" x="138" y="130" style="fill:rgb(0,0,0);">6.31</text>
<line x1="140" y1="50" x2="150" y2="50" style="stroke:rgb(0,0,0);stroke-width:1;" />
<text text-anchor="end" x="138" y="55" style="fill:rgb(0,0,0);">6.90</text>
<line x1="150" y1="850" x2="1000" y2="850" style="stroke:rgb(0,0,0);stroke-width:1;" />
<line x1="200" y1="850" x2="200" y2="860" style="stroke:rgb(0,0,0);stroke-width:1;" />
<text text-anchor="middle" x="200" y="875" style="fill:rgb(0,0,0);">4.30</text>
<line x1="275" y1="850" x2="275" y2="860" style="stroke:rgb(0,0,0);stroke-width:1;" />
<text text-anchor="middle" x="275" y="875" style="fill:rgb(0,0,0);">4.66</text>
<line x1="349" y1="850" x2="349" y2="860" style="stroke:rgb(0,0,0);stroke-width:1;" />
<text text-anchor="middle" x="349" y="875" style="fill:rgb(0,0,0);">5.02</text>
<line x1="425" y1="850" x2="425" y2="860" style="stroke:rgb(0,0,0);stroke-width:1;" />
<text text-anchor="middle" x="425" y="875" style="fill:rgb(0,0,0);">5.38</text>
<line x1="500" y1="850" x2="500" y2="860" style="stroke:rgb(0,0,0);stroke-width:1;" />
<text text-anchor="middle" x="500" y="875" style="fill:rgb(0,0,0);">5.74</text>
<line x1="574" y1="850" x2="574" y2="860" style="stroke:rgb(0,0,0);stroke-width:1;" />
<text text-anchor="middle" x="574" y="875" style="fill:rgb(0,0,0);">6.10</text>
<line x1="650" y1="850" x2="650" y2="860" style="stroke:rgb(0,0,0);stroke-width:1;" />
<text text-anchor="middle" x="650" y="875" style="fill:rgb(0,0,0);">6.46</text>
<line x1="725" y1="850" x2="725" y2="860" style="stroke:rgb(0,0,0);stroke-width:1;" />
<text text-anchor="middle" x="725" y="875" style="fill:rgb(0,0,0);">6.82</text>
<line x1="799" y1="850" x2="799" y2="860" style="stroke:rgb(0,0,0);stroke-width:1;" />
<text text-anchor="middle" x="799" y="875" style="fill:rgb(0,0,0);">7.18</text>
<line x1="874" y1="850" x2="874" y2="860" style="stroke:rgb(0,0,0);stroke-width:1;" />
<text text-anchor="middle" x="874" y="875" style="fill:rgb(0,0,0);">7.54</text>
<line x1="950" y1="850" x2="950" y2="860" style="stroke:rgb(0,0,0);stroke-width:1;" />
<text text-anchor="middle" x="950" y="875" style="fill:rgb(0,0,0);">7.90</text>
<g transform="rotate(0 575 950)"><text text-anchor="middle" x="575" y="950" style="fill:rgb(128,128,128);font-size:40px;">SEPALLENGTH / SEPALLENGTH</text></g>
<g transform="rotate(-90 75 425)"><text text-anchor="middle" x="75" y="425" style="fill:rgb(128,128,128);font-size:40px;">PETALLENGTH / PETALLENGTH</text></g>
<rect x="351" y="735" width="30" height="30" style="fill:rgb(255,0,0);stroke-width:1;stroke:rgb(0,0,0);"/>
<rect x="310" y="735" width="30" height="30" style="fill:rgb(255,0,0);stroke-width:1;stroke:rgb(0,0,0);"/>
<rect x="268" y="747" width="30" height="30" style="fill:rgb(255,0,0);stroke-width:1;stroke:rgb(0,0,0);"/>
<rect x="247" y="722" width="30" height="30" style="fill:rgb(255,0,0);stroke-width:1;stroke:rgb(0,0,0);"/>
<rect x="330" y="735" width="30" height="30" style="fill:rgb(255,0,0);stroke-width:1;stroke:rgb(0,0,0);"/>
<rect x="414" y="697" width="30" height="30" style="fill:rgb(255,0,0);stroke-width:1;stroke:rgb(0,0,0);"/>
<rect x="247" y="735" width="30" height="30" style="fill:rgb(255,0,0);stroke-width:1;stroke:rgb(0,0,0);"/>
<rect x="330" y="722" width="30" height="30" style="fill:rgb(255,0,0);stroke-width:1;stroke:rgb(0,0,0);"/>
<rect x="205" y="735" width="30" height="30" style="fill:rgb(255,0,0);stroke-width:1;stroke:rgb(0,0,0);"/>
<rect x="310" y="722" width="30" height="30" style="fill:rgb(255,0,0);stroke-width:1;stroke:rgb(0,0,0);"/>
<rect x="414" y="722" width="30" height="30" style="fill:rgb(255,0,0);stroke-width:1;stroke:rgb(0,0,0);"/>
<rect x="289" y="709" width="30" height="30" style="fill:rgb(255,0,0);stroke-width:1;stroke:rgb(0,0,0);"/>
<rect x="289" y="735" width="30" height="30" style="fill:rgb(255,0,0);stroke-width:1;stroke:rgb(0,0,0);"/>
<rect x="185" y="773" width="30" height="30" style="fill:rgb(255,0,0);stroke-width:1;stroke:rgb(0,0,0);"/>
<rect x="497" y="760" width="30" height="30" style="fill:rgb(255,0,0);stroke-width:1;stroke:rgb(0,0,0);"/>
<rect x="476" y="722" width="30" height="30" style="fill:rgb(255,0,0);stroke-width:1;stroke:rgb(0,0,0);"/>
<rect x="414" y="747" width="30" height="30" style="fill:rgb(255,0,0);stroke-width:1;stroke:rgb(0,0,0);"/>
<rect x="351" y="735" width="30" height="30" style="fill:rgb(255,0,0);stroke-width:1;stroke:rgb(0,0,0);"/>
<rect x="476" y="697" width="30" height="30" style="fill:rgb(255,0,0);stroke-width:1;stroke:rgb(0,0,0);"/>
<rect x="351" y="722" width="30" height="30" style="fill:rgb(255,0,0);stroke-width:1;stroke:rgb(0,0,0);"/>
<rect x="414" y="697" width="30" height="30" style="fill:rgb(255,0,0);stroke-width:1;stroke:rgb(0,0,0);"/>
<rect x="351" y="722" width="30" height="30" style="fill:rgb(255,0,0);stroke-width:1;stroke:rgb(0,0,0);"/>
<rect x="247" y="785" width="30" height="30" style="fill:rgb(255,0,0);stroke-width:1;stroke:rgb(0,0,0);"/>
<rect x="351" y="697" width="30" height="30" style="fill:rgb(255,0,0);stroke-width:1;stroke:rgb(0,0,0);"/>
<rect x="289" y="671" width="30" height="30" style="fill:rgb(255,0,0);stroke-width:1;stroke:rgb(0,0,0);"/>
<rect x="330" y="709" width="30" height="30" style="fill:rgb(255,0,0);stroke-width:1;stroke:rgb(0,0,0);"/>
<rect x="330" y="709" width="30" height="30" style="fill:rgb(255,0,0);stroke-width:1;stroke:rgb(0,0,0);"/>
<rect x="372" y="722" width="30" height="30" style="fill:rgb(255,0,0);stroke-width:1;stroke:rgb(0,0,0);"/>
<rect x="372" y="735" width="30" height="30" style="fill:rgb(255,0,0);stroke-width:1;stroke:rgb(0,0,0);"/>
<rect x="268" y="709" width="30" height="30" style="fill:rgb(255,0,0);stroke-width:1;stroke:rgb(0,0,0);"/>
<rect x="289" y="709" width="30" height="30" style="fill:rgb(255,0,0);stroke-width:1;stroke:rgb(0,0,0);"/>
<rect x="414" y="722" width="30" height="30" style="fill:rgb(255,0,0);stroke-width:1;stroke:rgb(0,0,0);"/>
<rect x="372" y="722" width="30" height="30" style="fill:rgb(255,0,0);stroke-width:1;stroke:rgb(0,0,0);"/>
<rect x="435" y="735" width="30" height="30" style="fill:rgb(255,0,0);stroke-width:1;stroke:rgb(0,0,0);"/>
<rect x="310" y="722" width="30" height="30" style="fill:rgb(255,0,0);stroke-width:1;stroke:rgb(0,0,0);"/>
<rect x="330" y="760" width="30" height="30" style="fill:rgb(255,0,0);stroke-width:1;stroke:rgb(0,0,0);"/>
<rect x="435" y="747" width="30" height="30" style="fill:rgb(255,0,0);stroke-width:1;stroke:rgb(0,0,0);"/>
<rect x="310" y="722" width="30" height="30" style="fill:rgb(255,0,0);stroke-width:1;stroke:rgb(0,0,0);"/>
<rect x="205" y="747" width="30" height="30" style="fill:rgb(255,0,0);stroke-width:1;stroke:rgb(0,0,0);"/>
<rect x="351" y="722" width="30" height="30" style="fill:rgb(255,0,0);stroke-width:1;stroke:rgb(0,0,0);"/>
<rect x="330" y="747" width="30" height="30" style="fill:rgb(255,0,0);stroke-width:1;stroke:rgb(0,0,0);"/>
<rect x="226" y="747" width="30" height="30" style="fill:rgb(255,0,0);stroke-width:1;stroke:rgb(0,0,0);"/>
<rect x="205" y="747" width="30" height="30" style="fill:rgb(255,0,0);stroke-width:1;stroke:rgb(0,0,0);"/>
<rect x="330" y="709" width="30" height="30" style="fill:rgb(255,0,0);stroke-width:1;stroke:rgb(0,0,0);"/>
<rect x="351" y="671" width="30" height="30" style="fill:rgb(255,0,0);stroke-width:1;stroke:rgb(0,0,0);"/>
<rect x="289" y="735" width="30" height="30" style="fill:rgb(255,0,0);stroke-width:1;stroke:rgb(0,0,0);"/>
<rect x="351" y="709" width="30" height="30" style="fill:rgb(255,0,0);stroke-width:1;stroke:rgb(0,0,0);"/>
<rect x="247" y="735" width="30" height="30" style="fill:rgb(255,0,0);stroke-width:1;stroke:rgb(0,0,0);"/>
<rect x="393" y="722" width="30" height="30" style="fill:rgb(255,0,0);stroke-width:1;stroke:rgb(0,0,0);"/>
<rect x="330" y="735" width="30" height="30" style="fill:rgb(255,0,0);stroke-width:1;stroke:rgb(0,0,0);"/>
<rect x="747" y="315" width="30" height="30" style="fill:rgb(0,255,0);stroke-width:1;stroke:rgb(0,0,0);"/>
<rect x="622" y="341" width="30" height="30" style="fill:rgb(0,255,0);stroke-width:1;stroke:rgb(0,0,0);"/>
<rect x="726" y="290" width="30" height="30" style="fill:rgb(0,255,0);stroke-width:1;stroke:rgb(0,0,0);"/>
<rect x="435" y="404" width="30" height="30" style="fill:rgb(0,255,0);stroke-width:1;stroke:rgb(0,0,0);"/>
<rect x="643" y="328" width="30" height="30" style="fill:rgb(0,255,0);stroke-width:1;stroke:rgb(0,0,0);"/>
<rect x="476" y="341" width="30" height="30" style="fill:rgb(0,255,0);stroke-width:1;stroke:rgb(0,0,0);"/>
<rect x="601" y="315" width="30" height="30" style="fill:rgb(0,255,0);stroke-width:1;stroke:rgb(0,0,0);"/>
<rect x="310" y="493" width="30" height="30" style="fill:rgb(0,255,0);stroke-width:1;stroke:rgb(0,0,0);"/>
<rect x="664" y="328" width="30" height="30" style="fill:rgb(0,255,0);stroke-width:1;stroke:rgb(0,0,0);"/>
<rect x="372" y="417" width="30" height="30" style="fill:rgb(0,255,0);stroke-width:1;stroke:rgb(0,0,0);"/>
<rect x="330" y="468" width="30" height="30" style="fill:rgb(0,255,0);stroke-width:1;stroke:rgb(0,0,0);"/>
<rect x="518" y="379" width="30" height="30" style="fill:rgb(0,255,0);stroke-width:1;stroke:rgb(0,0,0);"/>
<rect x="539" y="404" width="30" height="30" style="fill:rgb(0,255,0);stroke-width:1;stroke:rgb(0,0,0);"/>
<rect x="559" y="315" width="30" height="30" style="fill:rgb(0,255,0);stroke-width:1;stroke:rgb(0,0,0);"/>
<rect x="455" y="455" width="30" height="30" style="fill:rgb(0,255,0);stroke-width:1;stroke:rgb(0,0,0);"/>
<rect x="685" y="353" width="30" height="30" style="fill:rgb(0,255,0);stroke-width:1;stroke:rgb(0,0,0);"/>
<rect x="455" y="341" width="30" height="30" style="fill:rgb(0,255,0);stroke-width:1;stroke:rgb(0,0,0);"/>
<rect x="497" y="391" width="30" height="30" style="fill:rgb(0,255,0);stroke-width:1;stroke:rgb(0,0,0);"/>
<rect x="580" y="341" width="30" height="30" style="fill:rgb(0,255,0);stroke-width:1;stroke:rgb(0,0,0);"/>
<rect x="455" y="417" width="30" height="30" style="fill:rgb(0,255,0);stroke-width:1;stroke:rgb(0,0,0);"/>
<rect x="518" y="302" width="30" height="30" style="fill:rgb(0,255,0);stroke-width:1;stroke:rgb(0,0,0);"/>
<rect x="559" y="404" width="30" height="30" style="fill:rgb(0,255,0);stroke-width:1;stroke:rgb(0,0,0);"/>
<rect x="601" y="290" width="30" height="30" style="fill:rgb(0,255,0);stroke-width:1;stroke:rgb(0,0,0);"/>
<rect x="559" y="315" width="30" height="30" style="fill:rgb(0,255,0);stroke-width:1;stroke:rgb(0,0,0);"/>
<rect x="622" y="366" width="30" height="30" style="fill:rgb(0,255,0);stroke-width:1;stroke:rgb(0,0,0);"/>
<rect x="664" y="353" width="30" height="30" style="fill:rgb(0,255,0);stroke-width:1;stroke:rgb(0,0,0);"/>
<rect x="705" y="302" width="30" height="30" style="fill:rgb(0,255,0);stroke-width:1;stroke:rgb(0,0,0);"/>
<rect x="685" y="277" width="30" height="30" style="fill:rgb(0,255,0);stroke-width:1;stroke:rgb(0,0,0);"/>
<rect x="539" y="341" width="30" height="30" style="fill:rgb(0,255,0);stroke-width:1;stroke:rgb(0,0,0);"/>
<rect x="476" y="468" width="30" height="30" style="fill:rgb(0,255,0);stroke-width:1;stroke:rgb(0,0,0);"/>
<rect x="435" y="430" width="30" height="30" style="fill:rgb(0,255,0);stroke-width:1;stroke:rgb(0,0,0);"/>
<rect x="435" y="442" width="30" height="30" style="fill:rgb(0,255,0);stroke-width:1;stroke:rgb(0,0,0);"/>
<rect x="497" y="417" width="30" height="30" style="fill:rgb(0,255,0);stroke-width:1;stroke:rgb(0,0,0);"/>
<rect x="539" y="264" width="30" height="30" style="fill:rgb(0,255,0);stroke-width:1;stroke:rgb(0,0,0);"/>
<rect x="414" y="341" width="30" height="30" style="fill:rgb(0,255,0);stroke-width:1;stroke:rgb(0,0,0);"/>
<rect x="539" y="341" width="30" height="30" style="fill:rgb(0,255,0);stroke-width:1;stroke:rgb(0,0,0);"/>
<rect x="685" y="315" width="30" height="30" style="fill:rgb(0,255,0);stroke-width:1;stroke:rgb(0,0,0);"/>
<rect x="601" y="353" width="30" height="30" style="fill:rgb(0,255,0);stroke-width:1;stroke:rgb(0,0,0);"/>
<rect x="455" y="391" width="30" height="30" style="fill:rgb(0,255,0);stroke-width:1;stroke:rgb(0,0,0);"/>
<rect x="435" y="404" width="30" height="30" style="fill:rgb(0,255,0);stroke-width:1;stroke:rgb(0,0,0);"/>
<rect x="435" y="353" width="30" height="30" style="fill:rgb(0,255,0);stroke-width:1;stroke:rgb(0,0,0);"/>
<rect x="559" y="328" width="30" height="30" style="fill:rgb(0,255,0);stroke-width:1;stroke:rgb(0,0,0);"/>
<rect x="497" y="404" width="30" height="30" style="fill:rgb(0,255,0);stroke-width:1;stroke:rgb(0,0,0);"/>
<rect x="330" y="493" width="30" height="30" style="fill:rgb(0,255,0);stroke-width:1;stroke:rgb(0,0,0);"/>
<rect x="455" y="379" width="30" height="30" style="fill:rgb(0,255,0);stroke-width:1;stroke:rgb(0,0,0);"/>
<rect x="476" y="379" width="30" height="30" style="fill:rgb(0,255,0);stroke-width:1;stroke:rgb(0,0,0);"/>
<rect x="476" y="379" width="30" height="30" style="fill:rgb(0,255,0);stroke-width:1;stroke:rgb(0,0,0);"/>
<rect x="580" y="366" width="30" height="30" style="fill:rgb(0,255,0);stroke-width:1;stroke:rgb(0,0,0);"/>
<rect x="351" y="531" width="30" height="30" style="fill:rgb(0,255,0);stroke-width:1;stroke:rgb(0,0,0);"/>
<rect x="476" y="391" width="30" height="30" style="fill:rgb(0,255,0);stroke-width:1;stroke:rgb(0,0,0);"/>
<rect x="601" y="150" width="30" height="30" style="fill:rgb(0,0,255);stroke-width:1;stroke:rgb(0,0,0);"/>
<rect x="497" y="264" width="30" height="30" style="fill:rgb(0,0,255);stroke-width:1;stroke:rgb(0,0,0);"/>
<rect x="768" y="163" width="30" height="30" style="fill:rgb(0,0,255);stroke-width:1;stroke:rgb(0,0,0);"/>
<rect x="601" y="201" width="30" height="30" style="fill:rgb(0,0,255);stroke-width:1;stroke:rgb(0,0,0);"/>
<rect x="643" y="175" width="30" height="30" style="fill:rgb(0,0,255);stroke-width:1;stroke:rgb(0,0,0);"/>
<rect x="872" y="74" width="30" height="30" style="fill:rgb(0,0,255);stroke-width:1;stroke:rgb(0,0,0);"/>
<rect x="310" y="341" width="30" height="30" style="fill:rgb(0,0,255);stroke-width:1;stroke:rgb(0,0,0);"/>
<rect x="810" y="112" width="30" height="30" style="fill:rgb(0,0,255);stroke-width:1;stroke:rgb(0,0,0);"/>
<rect x="685" y="175" width="30" height="30" style="fill:rgb(0,0,255);stroke-width:1;stroke:rgb(0,0,0);"/>
<rect x="789" y="137" width="30" height="30" style="fill:rgb(0,0,255);stroke-width:1;stroke:rgb(0,0,0);"/>
<rect x="643" y="264" width="30" height="30" style="fill:rgb(0,0,255);stroke-width:1;stroke:rgb(0,0,0);"/>
<rect x="622" y="239" width="30" height="30" style="fill:rgb(0,0,255);stroke-width:1;stroke:rgb(0,0,0);"/>
<rect x="705" y="213" width="30" height="30" style="fill:rgb(0,0,255);stroke-width:1;stroke:rgb(0,0,0);"/>
<rect x="476" y="277" width="30" height="30" style="fill:rgb(0,0,255);stroke-width:1;stroke:rgb(0,0,0);"/>
<rect x="497" y="264" width="30" height="30" style="fill:rgb(0,0,255);stroke-width:1;stroke:rgb(0,0,0);"/>
<rect x="622" y="239" width="30" height="30" style="fill:rgb(0,0,255);stroke-width:1;stroke:rgb(0,0,0);"/>
<rect x="643" y="213" width="30" height="30" style="fill:rgb(0,0,255);stroke-width:1;stroke:rgb(0,0,0);"/>
<rect x="893" y="61" width="30" height="30" style="fill:rgb(0,0,255);stroke-width:1;stroke:rgb(0,0,0);"/>
<rect x="893" y="35" width="30" height="30" style="fill:rgb(0,0,255);stroke-width:1;stroke:rgb(0,0,0);"/>
<rect x="539" y="277" width="30" height="30" style="fill:rgb(0,0,255);stroke-width:1;stroke:rgb(0,0,0);"/>
<rect x="726" y="188" width="30" height="30" style="fill:rgb(0,0,255);stroke-width:1;stroke:rgb(0,0,0);"/>
<rect x="455" y="290" width="30" height="30" style="fill:rgb(0,0,255);stroke-width:1;stroke:rgb(0,0,0);"/>
<rect x="893" y="61" width="30" height="30" style="fill:rgb(0,0,255);stroke-width:1;stroke:rgb(0,0,0);"/>
<rect x="601" y="290" width="30" height="30" style="fill:rgb(0,0,255);stroke-width:1;stroke:rgb(0,0,0);"/>
<rect x="685" y="188" width="30" height="30" style="fill:rgb(0,0,255);stroke-width:1;stroke:rgb(0,0,0);"/>
<rect x="789" y="150" width="30" height="30" style="fill:rgb(0,0,255);stroke-width:1;stroke:rgb(0,0,0);"/>
<rect x="580" y="302" width="30" height="30" style="fill:rgb(0,0,255);stroke-width:1;stroke:rgb(0,0,0);"/>
<rect x="559" y="290" width="30" height="30" style="fill:rgb(0,0,255);stroke-width:1;stroke:rgb(0,0,0);"/>
<rect x="622" y="201" width="30" height="30" style="fill:rgb(0,0,255);stroke-width:1;stroke:rgb(0,0,0);"/>
<rect x="789" y="175" width="30" height="30" style="fill:rgb(0,0,255);stroke-width:1;stroke:rgb(0,0,0);"/>
<rect x="830" y="137" width="30" height="30" style="fill:rgb(0,0,255);stroke-width:1;stroke:rgb(0,0,0);"/>
<rect x="935" y="99" width="30" height="30" style="fill:rgb(0,0,255);stroke-width:1;stroke:rgb(0,0,0);"/>
<rect x="622" y="201" width="30" height="30" style="fill:rgb(0,0,255);stroke-width:1;stroke:rgb(0,0,0);"/>
<rect x="601" y="264" width="30" height="30" style="fill:rgb(0,0,255);stroke-width:1;stroke:rgb(0,0,0);"/>
<rect x="559" y="201" width="30" height="30" style="fill:rgb(0,0,255);stroke-width:1;stroke:rgb(0,0,0);"/>
<rect x="893" y="137" width="30" height="30" style="fill:rgb(0,0,255);stroke-width:1;stroke:rgb(0,0,0);"/>
<rect x="601" y="201" width="30" height="30" style="fill:rgb(0,0,255);stroke-width:1;stroke:rgb(0,0,0);"/>
<rect x="622" y="213" width="30" height="30" style="fill:rgb(0,0,255);stroke-width:1;stroke:rgb(0,0,0);"/>
<rect x="539" y="302" width="30" height="30" style="fill:rgb(0,0,255);stroke-width:1;stroke:rgb(0,0,0);"/>
<rect x="726" y="226" width="30" height="30" style="fill:rgb(0,0,255);stroke-width:1;stroke:rgb(0,0,0);"/>
<rect x="685" y="201" width="30" height="30" style="fill:rgb(0,0,255);stroke-width:1;stroke:rgb(0,0,0);"/>
<rect x="726" y="264" width="30" height="30" style="fill:rgb(0,0,255);stroke-width:1;stroke:rgb(0,0,0);"/>
<rect x="497" y="264" width="30" height="30" style="fill:rgb(0,0,255);stroke-width:1;stroke:rgb(0,0,0);"/>
<rect x="705" y="163" width="30" height="30" style="fill:rgb(0,0,255);stroke-width:1;stroke:rgb(0,0,0);"/>
<rect x="685" y="188" width="30" height="30" style="fill:rgb(0,0,255);stroke-width:1;stroke:rgb(0,0,0);"/>
<rect x="685" y="252" width="30" height="30" style="fill:rgb(0,0,255);stroke-width:1;stroke:rgb(0,0,0);"/>
<rect x="601" y="277" width="30" height="30" style="fill:rgb(0,0,255);stroke-width:1;stroke:rgb(0,0,0);"/>
<rect x="643" y="252" width="30" height="30" style="fill:rgb(0,0,255);stroke-width:1;stroke:rgb(0,0,0);"/>
<rect x="580" y="226" width="30" height="30" style="fill:rgb(0,0,255);stroke-width:1;stroke:rgb(0,0,0);"/>
<rect x="518" y="264" width="30" height="30" style="fill:rgb(0,0,255);stroke-width:1;stroke:rgb(0,0,0);"/>
<circle cx="366" cy="750" r="15" style="stroke:rgb(0,0,0);stroke-width:1;fill:rgb(255,0,0);"/>
<circle cx="325" cy="750" r="15" style="stroke:rgb(0,0,0);stroke-width:1;fill:rgb(255,0,0);"/>
<circle cx="283" cy="762" r="15" style="stroke:rgb(0,0,0);stroke-width:1;fill:rgb(255,0,0);"/>
<circle cx="262" cy="737" r="15" style="stroke:rgb(0,0,0);stroke-width:1;fill:rgb(255,0,0);"/>
<circle cx="345" cy="750" r="15" style="stroke:rgb(0,0,0);stroke-width:1;fill:rgb(255,0,0);"/>
<circle cx="429" cy="712" r="15" style="stroke:rgb(0,0,0);stroke-width:1;fill:rgb(255,0,0);"/>
<circle cx="262" cy="750" r="15" style="stroke:rgb(0,0,0);stroke-width:1;fill:rgb(255,0,0);"/>
<circle cx="345" cy="737" r="15" style="stroke:rgb(0,0,0);stroke-width:1;fill:rgb(255,0,0);"/>
<circle cx="220" cy="750" r="15" style="stroke:rgb(0,0,0);stroke-width:1;fill:rgb(255,0,0);"/>
<circle cx="325" cy="737" r="15" style="stroke:rgb(0,0,0);stroke-width:1;fill:rgb(255,0,0);"/>
<circle cx="429" cy="737" r="15" style="stroke:rgb(0,0,0);stroke-width:1;fill:rgb(255,0,0);"/>
<circle cx="304" cy="724" r="15" style="stroke:rgb(0,0,0);stroke-width:1;fill:rgb(255,0,0);"/>
<circle cx="304" cy="750" r="15" style="stroke:rgb(0,0,0);stroke-width:1;fill:rgb(255,0,0);"/>
<circle cx="200" cy="788" r="15" style="stroke:rgb(0,0,0);stroke-width:1;fill:rgb(0,255,0);"/>
<circle cx="512" cy="775" r="15" style="stroke:rgb(0,0,0);stroke-width:1;fill:rgb(255,0,0);"/>
<circle cx="491" cy="737" r="15" style="stroke:rgb(0,0,0);stroke-width:1;fill:rgb(255,0,0);"/>
<circle cx="429" cy="762" r="15" style="stroke:rgb(0,0,0);stroke-width:1;fill:rgb(255,0,0);"/>
<circle cx="366" cy="750" r="15" style="stroke:rgb(0,0,0);stroke-width:1;fill:rgb(255,0,0);"/>
<circle cx="491" cy="712" r="15" style="stroke:rgb(0,0,0);stroke-width:1;fill:rgb(255,0,0);"/>
<circle cx="366" cy="737" r="15" style="stroke:rgb(0,0,0);stroke-width:1;fill:rgb(255,0,0);"/>
<circle cx="429" cy="712" r="15" style="stroke:rgb(0,0,0);stroke-width:1;fill:rgb(255,0,0);"/>
<circle cx="366" cy="737" r="15" style="stroke:rgb(0,0,0);stroke-width:1;fill:rgb(255,0,0);"/>
<circle cx="262" cy="800" r="15" style="stroke:rgb(0,0,0);stroke-width:1;fill:rgb(255,0,0);"/>
<circle cx="366" cy="712" r="15" style="stroke:rgb(0,0,0);stroke-width:1;fill:rgb(255,0,0);"/>
<circle cx="304" cy="686" r="15" style="stroke:rgb(0,0,0);stroke-width:1;fill:rgb(255,0,0);"/>
<circle cx="345" cy="724" r="15" style="stroke:rgb(0,0,0);stroke-width:1;fill:rgb(255,0,0);"/>
<circle cx="345" cy="724" r="15" style="stroke:rgb(0,0,0);stroke-width:1;fill:rgb(0,255,0);"/>
<circle cx="387" cy="737" r="15" style="stroke:rgb(0,0,0);stroke-width:1;fill:rgb(255,0,0);"/>
<circle cx="387" cy="750" r="15" style="stroke:rgb(0,0,0);stroke-width:1;fill:rgb(255,0,0);"/>
<circle cx="283" cy="724" r="15" style="stroke:rgb(0,0,0);stroke-width:1;fill:rgb(255,0,0);"/>
<circle cx="304" cy="724" r="15" style="stroke:rgb(0,0,0);stroke-width:1;fill:rgb(255,0,0);"/>
<circle cx="429" cy="737" r="15" style="stroke:rgb(0,0,0);stroke-width:1;fill:rgb(255,0,0);"/>
<circle cx="387" cy="737" r="15" style="stroke:rgb(0,0,0);stroke-width:1;fill:rgb(255,0,0);"/>
<circle cx="450" cy="750" r="15" style="stroke:rgb(0,0,0);stroke-width:1;fill:rgb(255,0,0);"/>
<circle cx="325" cy="737" r="15" style="stroke:rgb(0,0,0);stroke-width:1;fill:rgb(255,0,0);"/>
<circle cx="345" cy="775" r="15" style="stroke:rgb(0,0,0);stroke-width:1;fill:rgb(255,0,0);"/>
<circle cx="450" cy="762" r="15" style="stroke:rgb(0,0,0);stroke-width:1;fill:rgb(255,0,0);"/>
<circle cx="325" cy="737" r="15" style="stroke:rgb(0,0,0);stroke-width:1;fill:rgb(0,0,255);"/>
<circle cx="220" cy="762" r="15" style="stroke:rgb(0,0,0);stroke-width:1;fill:rgb(255,0,0);"/>
<circle cx="366" cy="737" r="15" style="stroke:rgb(0,0,0);stroke-width:1;fill:rgb(255,0,0);"/>
<circle cx="345" cy="762" r="15" style="stroke:rgb(0,0,0);stroke-width:1;fill:rgb(255,0,0);"/>
<circle cx="241" cy="762" r="15" style="stroke:rgb(0,0,0);stroke-width:1;fill:rgb(255,0,0);"/>
<circle cx="220" cy="762" r="15" style="stroke:rgb(0,0,0);stroke-width:1;fill:rgb(255,0,0);"/>
<circle cx="345" cy="724" r="15" style="stroke:rgb(0,0,0);stroke-width:1;fill:rgb(255,0,0);"/>
<circle cx="366" cy="686" r="15" style="stroke:rgb(0,0,0);stroke-width:1;fill:rgb(255,0,0);"/>
<circle cx="304" cy="750" r="15" style="stroke:rgb(0,0,0);stroke-width:1;fill:rgb(255,0,0);"/>
<circle cx="366" cy="724" r="15" style="stroke:rgb(0,0,0);stroke-width:1;fill:rgb(255,0,0);"/>
<circle cx="262" cy="750" r="15" style="stroke:rgb(0,0,0);stroke-width:1;fill:rgb(255,0,0);"/>
<circle cx="408" cy="737" r="15" style="stroke:rgb(0,0,0);stroke-width:1;fill:rgb(255,0,0);"/>
<circle cx="345" cy="750" r="15" style="stroke:rgb(0,0,0);stroke-width:1;fill:rgb(255,0,0);"/>
<circle cx="762" cy="330" r="15" style="stroke:rgb(0,0,0);stroke-width:1;fill:rgb(0,255,0);"/>
<circle cx="637" cy="356" r="15" style="stroke:rgb(0,0,0);stroke-width:1;fill:rgb(0,255,0);"/>
<circle cx="741" cy="305" r="15" style="stroke:rgb(0,0,0);stroke-width:1;fill:rgb(0,255,0);"/>
<circle cx="450" cy="419" r="15" style="stroke:rgb(0,0,0);stroke-width:1;fill:rgb(0,255,0);"/>
<circle cx="658" cy="343" r="15" style="stroke:rgb(0,0,0);stroke-width:1;fill:rgb(0,255,0);"/>
<circle cx="491" cy="356" r="15" style="stroke:rgb(0,0,0);stroke-width:1;fill:rgb(0,255,0);"/>
<circle cx="616" cy="330" r="15" style="stroke:rgb(0,0,0);stroke-width:1;fill:rgb(0,255,0);"/>
<circle cx="325" cy="508" r="15" style="stroke:rgb(0,0,0);stroke-width:1;fill:rgb(0,255,0);"/>
<circle cx="679" cy="343" r="15" style="stroke:rgb(0,0,0);stroke-width:1;fill:rgb(0,255,0);"/>
<circle cx="387" cy="432" r="15" style="stroke:rgb(0,0,0);stroke-width:1;fill:rgb(0,255,0);"/>
<circle cx="345" cy="483" r="15" style="stroke:rgb(0,0,0);stroke-width:1;fill:rgb(0,255,0);"/>
<circle cx="533" cy="394" r="15" style="stroke:rgb(0,0,0);stroke-width:1;fill:rgb(0,255,0);"/>
<circle cx="554" cy="419" r="15" style="stroke:rgb(0,0,0);stroke-width:1;fill:rgb(0,255,0);"/>
<circle cx="574" cy="330" r="15" style="stroke:rgb(0,0,0);stroke-width:1;fill:rgb(0,255,0);"/>
<circle cx="470" cy="470" r="15" style="stroke:rgb(0,0,0);stroke-width:1;fill:rgb(0,255,0);"/>
<circle cx="700" cy="368" r="15" style="stroke:rgb(0,0,0);stroke-width:1;fill:rgb(0,255,0);"/>
<circle cx="470" cy="356" r="15" style="stroke:rgb(0,0,0);stroke-width:1;fill:rgb(0,255,0);"/>
<circle cx="512" cy="406" r="15" style="stroke:rgb(0,0,0);stroke-width:1;fill:rgb(0,255,0);"/>
<circle cx="595" cy="356" r="15" style="stroke:rgb(0,0,0);stroke-width:1;fill:rgb(0,255,0);"/>
<circle cx="470" cy="432" r="15" style="stroke:rgb(0,0,0);stroke-width:1;fill:rgb(0,255,0);"/>
<circle cx="533" cy="317" r="15" style="stroke:rgb(0,0,0);stroke-width:1;fill:rgb(0,255,0);"/>
<circle cx="574" cy="419" r="15" style="stroke:rgb(0,0,0);stroke-width:1;fill:rgb(0,255,0);"/>
<circle cx="616" cy="305" r="15" style="stroke:rgb(0,0,0);stroke-width:1;fill:rgb(0,255,0);"/>
<circle cx="574" cy="330" r="15" style="stroke:rgb(0,0,0);stroke-width:1;fill:rgb(0,255,0);"/>
<circle cx="637" cy="381" r="15" style="stroke:rgb(0,0,0);stroke-width:1;fill:rgb(0,255,0);"/>
<circle cx="679" cy="368" r="15" style="stroke:rgb(0,0,0);stroke-width:1;fill:rgb(0,255,0);"/>
<circle cx="720" cy="317" r="15" style="stroke:rgb(0,0,0);stroke-width:1;fill:rgb(0,255,0);"/>
<circle cx="700" cy="292" r="15" style="stroke:rgb(0,0,0);stroke-width:1;fill:rgb(0,255,0);"/>
<circle cx="554" cy="356" r="15" style="stroke:rgb(0,0,0);stroke-width:1;fill:rgb(0,255,0);"/>
<circle cx="491" cy="483" r="15" style="stroke:rgb(0,0,0);stroke-width:1;fill:rgb(0,255,0);"/>
<circle cx="450" cy="445" r="15" style="stroke:rgb(0,0,0);stroke-width:1;fill:rgb(0,255,0);"/>
<circle cx="450" cy="457" r="15" style="stroke:rgb(0,0,0);stroke-width:1;fill:rgb(0,255,0);"/>
<circle cx="512" cy="432" r="15" style="stroke:rgb(0,0,0);stroke-width:1;fill:rgb(0,255,0);"/>
<circle cx="554" cy="279" r="15" style="stroke:rgb(0,0,0);stroke-width:1;fill:rgb(0,255,0);"/>
<circle cx="429" cy="356" r="15" style="stroke:rgb(0,0,0);stroke-width:1;fill:rgb(0,255,0);"/>
<circle cx="554" cy="356" r="15" style="stroke:rgb(0,0,0);stroke-width:1;fill:rgb(0,255,0);"/>
<circle cx="700" cy="330" r="15" style="stroke:rgb(0,0,0);stroke-width:1;fill:rgb(0,255,0);"/>
<circle cx="616" cy="368" r="15" style="stroke:rgb(0,0,0);stroke-width:1;fill:rgb(0,255,0);"/>
<circle cx="470" cy="406" r="15" style="stroke:rgb(0,0,0);stroke-width:1;fill:rgb(0,255,0);"/>
<circle cx="450" cy="419" r="15" style="stroke:rgb(0,0,0);stroke-width:1;fill:rgb(0,255,0);"/>
<circle cx="450" cy="368" r="15" style="stroke:rgb(0,0,0);stroke-width:1;fill:rgb(0,255,0);"/>
<circle cx="574" cy="343" r="15" style="stroke:rgb(0,0,0);stroke-width:1;fill:rgb(0,255,0);"/>
<circle cx="512" cy="419" r="15" style="stroke:rgb(0,0,0);stroke-width:1;fill:rgb(0,255,0);"/>
<circle cx="345" cy="508" r="15" style="stroke:rgb(0,0,0);stroke-width:1;fill:rgb(0,255,0);"/>
<circle cx="470" cy="394" r="15" style="stroke:rgb(0,0,0);stroke-width:1;fill:rgb(0,255,0);"/>
<circle cx="491" cy="394" r="15" style="stroke:rgb(0,0,0);stroke-width:1;fill:rgb(0,255,0);"/>
<circle cx="491" cy="394" r="15" style="stroke:rgb(0,0,0);stroke-width:1;fill:rgb(0,255,0);"/>
<circle cx="595" cy="381" r="15" style="stroke:rgb(0,0,0);stroke-width:1;fill:rgb(0,255,0);"/>
<circle cx="366" cy="546" r="15" style="stroke:rgb(0,0,0);stroke-width:1;fill:rgb(0,255,0);"/>
<circle cx="491" cy="406" r="15" style="stroke:rgb(0,0,0);stroke-width:1;fill:rgb(0,255,0);"/>
<circle cx="616" cy="165" r="15" style="stroke:rgb(0,0,0);stroke-width:1;fill:rgb(0,0,255);"/>
<circle cx="512" cy="279" r="15" style="stroke:rgb(0,0,0);stroke-width:1;fill:rgb(0,0,255);"/>
<circle cx="783" cy="178" r="15" style="stroke:rgb(0,0,0);stroke-width:1;fill:rgb(0,0,255);"/>
<circle cx="616" cy="216" r="15" style="stroke:rgb(0,0,0);stroke-width:1;fill:rgb(0,0,255);"/>
<circle cx="658" cy="190" r="15" style="stroke:rgb(0,0,0);stroke-width:1;fill:rgb(0,0,255);"/>
<circle cx="887" cy="89" r="15" style="stroke:rgb(0,0,0);stroke-width:1;fill:rgb(0,0,255);"/>
<circle cx="325" cy="356" r="15" style="stroke:rgb(0,0,0);stroke-width:1;fill:rgb(0,0,255);"/>
<circle cx="825" cy="127" r="15" style="stroke:rgb(0,0,0);stroke-width:1;fill:rgb(0,0,255);"/>
<circle cx="700" cy="190" r="15" style="stroke:rgb(0,0,0);stroke-width:1;fill:rgb(0,0,255);"/>
<circle cx="804" cy="152" r="15" style="stroke:rgb(0,0,0);stroke-width:1;fill:rgb(0,0,255);"/>
<circle cx="658" cy="279" r="15" style="stroke:rgb(0,0,0);stroke-width:1;fill:rgb(0,0,255);"/>
<circle cx="637" cy="254" r="15" style="stroke:rgb(0,0,0);stroke-width:1;fill:rgb(0,0,255);"/>
<circle cx="720" cy="228" r="15" style="stroke:rgb(0,0,0);stroke-width:1;fill:rgb(0,0,255);"/>
<circle cx="491" cy="292" r="15" style="stroke:rgb(0,0,0);stroke-width:1;fill:rgb(0,0,255);"/>
<circle cx="512" cy="279" r="15" style="stroke:rgb(0,0,0);stroke-width:1;fill:rgb(0,0,255);"/>
<circle cx="637" cy="254" r="15" style="stroke:rgb(0,0,0);stroke-width:1;fill:rgb(0,0,255);"/>
<circle cx="658" cy="228" r="15" style="stroke:rgb(0,0,0);stroke-width:1;fill:rgb(0,0,255);"/>
<circle cx="908" cy="76" r="15" style="stroke:rgb(0,0,0);stroke-width:1;fill:rgb(0,0,255);"/>
<circle cx="908" cy="50" r="15" style="stroke:rgb(0,0,0);stroke-width:1;fill:rgb(0,0,255);"/>
<circle cx="554" cy="292" r="15" style="stroke:rgb(0,0,0);stroke-width:1;fill:rgb(0,0,255);"/>
<circle cx="741" cy="203" r="15" style="stroke:rgb(0,0,0);stroke-width:1;fill:rgb(0,0,255);"/>
<circle cx="470" cy="305" r="15" style="stroke:rgb(0,0,0);stroke-width:1;fill:rgb(0,0,255);"/>
<circle cx="908" cy="76" r="15" style="stroke:rgb(0,0,0);stroke-width:1;fill:rgb(0,0,255);"/>
<circle cx="616" cy="305" r="15" style="stroke:rgb(0,0,0);stroke-width:1;fill:rgb(0,0,255);"/>
<circle cx="700" cy="203" r="15" style="stroke:rgb(0,0,0);stroke-width:1;fill:rgb(0,0,255);"/>
<circle cx="804" cy="165" r="15" style="stroke:rgb(0,0,0);stroke-width:1;fill:rgb(0,0,255);"/>
<circle cx="595" cy="317" r="15" style="stroke:rgb(0,0,0);stroke-width:1;fill:rgb(0,0,255);"/>
<circle cx="574" cy="305" r="15" style="stroke:rgb(0,0,0);stroke-width:1;fill:rgb(0,0,255);"/>
<circle cx="637" cy="216" r="15" style="stroke:rgb(0,0,0);stroke-width:1;fill:rgb(0,0,255);"/>
<circle cx="804" cy="190" r="15" style="stroke:rgb(0,0,0);stroke-width:1;fill:rgb(0,0,255);"/>
<circle cx="845" cy="152" r="15" style="stroke:rgb(0,0,0);stroke-width:1;fill:rgb(0,0,255);"/>
<circle cx="950" cy="114" r="15" style="stroke:rgb(0,0,0);stroke-width:1;fill:rgb(0,0,255);"/>
<circle cx="637" cy="216" r="15" style="stroke:rgb(0,0,0);stroke-width:1;fill:rgb(0,0,255);"/>
<circle cx="616" cy="279" r="15" style="stroke:rgb(0,0,0);stroke-width:1;fill:rgb(0,0,255);"/>
<circle cx="574" cy="216" r="15" style="stroke:rgb(0,0,0);stroke-width:1;fill:rgb(0,0,255);"/>
<circle cx="908" cy="152" r="15" style="stroke:rgb(0,0,0);stroke-width:1;fill:rgb(0,0,255);"/>
<circle cx="616" cy="216" r="15" style="stroke:rgb(0,0,0);stroke-width:1;fill:rgb(0,0,255);"/>
<circle cx="637" cy="228" r="15" style="stroke:rgb(0,0,0);stroke-width:1;fill:rgb(0,0,255);"/>
<circle cx="554" cy="317" r="15" style="stroke:rgb(0,0,0);stroke-width:1;fill:rgb(0,0,255);"/>
<circle cx="741" cy="241" r="15" style="stroke:rgb(0,0,0);stroke-width:1;fill:rgb(0,0,255);"/>
<circle cx="700" cy="216" r="15" style="stroke:rgb(0,0,0);stroke-width:1;fill:rgb(0,0,255);"/>
<circle cx="741" cy="279" r="15" style="stroke:rgb(0,0,0);stroke-width:1;fill:rgb(0,0,255);"/>
<circle cx="512" cy="279" r="15" style="stroke:rgb(0,0,0);stroke-width:1;fill:rgb(0,0,255);"/>
<circle cx="720" cy="178" r="15" style="stroke:rgb(0,0,0);stroke-width:1;fill:rgb(0,0,255);"/>
<circle cx="700" cy="203" r="15" style="stroke:rgb(0,0,0);stroke-width:1;fill:rgb(0,0,255);"/>
<circle cx="700" cy="267" r="15" style="stroke:rgb(0,0,0);stroke-width:1;fill:rgb(0,0,255);"/>
<circle cx="616" cy="292" r="15" style="stroke:rgb(0,0,0);stroke-width:1;fill:rgb(0,0,255);"/>
<circle cx="658" cy="267" r="15" style="stroke:rgb(0,0,0);stroke-width:1;fill:rgb(0,0,255);"/>
<circle cx="595" cy="241" r="15" style="stroke:rgb(0,0,0);stroke-width:1;fill:rgb(0,0,255);"/>
<circle cx="533" cy="279" r="15" style="stroke:rgb(0,0,0);stroke-width:1;fill:rgb(0,0,255);"/>
</svg>